# xmcd
#
# Track frame offsets: 
#        150
#        29165
#        55209
#        83305
#        108744
#        124372
#        144484
#        164488
#        186773
#        207686
#        232211
#        259305
#
# Disc length: 3797 seconds
#
# Revision: 0
# Processed by: cddbd v1.5.2PL0 Copyright (c) Steve Scherf et al.
# Submitted via: ExactAudioCopy v1.0b3
#
DISCID=bb0ed30c
DTITLE=Nhat Truong, VA - Hat Cho Linh and Nhung Nguoi Yeu Linh
DYEAR=1997
DGENRE=
TTITLE0=Nhat Truong - Bien man
TTITLE1=Nhat Truong - Rung la thap
TTITLE2=Nhat Truong - Tam su nguoi linh tre
TTITLE3=Nhat Truong, My Lan - Hoa trinh nu
TTITLE4=My Lan - Mau mu anh mau ao em
TTITLE5=Nhat Truong, Thanh Lan - Anh khong chet dau em
TTITLE6=Anh Khoa - Bac Dau
TTITLE7=Nhu Mai - Nguoi yeu cua linh
TTITLE8=Ngoc Hue - Tren dinh mua dong
TTITLE9=Nhat Truong - Nguoi o lai Charlie
TTITLE10=Nhat Truong - Nguoi chet tro ve
TTITLE11=Nhat Truong - Ba me Tri Thien
EXTD=
EXTT0=
EXTT1=
EXTT2=
EXTT3=
EXTT4=
EXTT5=
EXTT6=
EXTT7=
EXTT8=
EXTT9=
EXTT10=
EXTT11=
PLAYORDER=
